<svg width="46" height="30" viewBox="0 0 46 30" fill="none" xmlns="http://www.w3.org/2000/svg">
<path fill-rule="evenodd" clip-rule="evenodd" d="M14.1809 0.188188C13.7114 0.287538 12.7015 0.673202 11.9366 1.04531C8.54597 2.69463 6.43163 6.09125 6.42278 9.9037C6.41952 11.3068 6.61959 12.431 7.06646 13.5214C7.38868 14.308 7.39148 14.3633 7.14251 15.0452C6.83953 15.8752 6.81718 16.4993 7.06475 17.2158C7.50013 18.4758 8.56258 19.3055 9.91667 19.4426C10.8928 19.5415 11.8176 19.1731 12.5758 18.383C13.8475 17.0581 13.6333 14.8181 12.122 13.638C11.6352 13.2578 11.3524 13.1673 10.4287 13.0958L9.32003 13.01L9.01549 12.172C8.80921 11.6041 8.7077 10.9162 8.70041 10.0387C8.6824 7.83641 9.42449 6.0559 11.0081 4.50105C14.0122 1.55211 18.3798 1.36438 21.7267 4.04072C22.7652 4.87117 23.2599 4.90576 24.0754 4.20498C26.0549 2.50385 28.6805 1.79423 31.0068 2.33136C32.3817 2.64876 33.1566 2.9942 34.1472 3.73139C34.979 4.35035 36.2214 5.71792 36.2214 6.0146C36.2214 6.12126 35.7359 6.21878 34.9409 6.27212C32.9725 6.40377 31.138 7.11064 29.5472 8.35038C29.163 8.6498 25.7558 11.9271 21.9756 15.6335C14.8187 22.6504 14.2237 23.1521 12.4423 23.6714C11.4848 23.9505 9.29752 23.9967 8.23228 23.76C5.12425 23.0699 2.58136 20.1163 2.28645 16.8537C2.23182 16.2482 2.11215 15.66 2.02057 15.5465C1.50308 14.9051 0.342383 15.0889 0.0702905 15.8551C-0.0990492 16.3318 0.0501134 17.8719 0.38336 19.0888C1.00391 21.3543 3.02388 23.8405 5.17345 24.9845C8.2419 26.6174 12.121 26.631 15.072 25.019C15.6048 24.7279 16.0804 24.4267 16.1288 24.3497C16.3505 23.9976 16.8408 24.3714 19.1923 26.6858C22.0745 29.5225 22.635 30 23.0812 30C23.2958 30 25.2342 28.2059 28.9322 24.5849C34.3022 19.3267 34.4748 19.1741 34.8864 19.3279C36.0136 19.7484 37.7216 19.182 38.4451 18.1477C39.6363 16.4448 39.1954 14.5724 37.3121 13.3378C37.0452 13.1627 36.5921 13.0862 35.8222 13.0862C34.8484 13.0862 34.6417 13.1391 34.0961 13.5269C33.2165 14.1526 32.8544 14.662 32.6613 15.5459C32.5397 16.1021 32.5402 16.4897 32.6627 16.9363L32.8325 17.5554L27.9311 22.3672L23.0299 27.1789L20.7007 24.8962C19.4197 23.6407 18.3717 22.5563 18.3717 22.4862C18.3717 22.4161 21.2182 19.5695 24.6972 16.1606C30.2815 10.6889 31.1501 9.89745 32.1087 9.40787C35.7629 7.54126 40.0987 8.61688 42.4512 11.9736C43.0672 12.8526 43.6154 14.434 43.755 15.7345C43.8833 16.9302 44.1858 17.3528 44.9135 17.3528C45.6446 17.3528 46 16.8883 46 15.9332C46 13.0366 44.5096 10.1498 42.042 8.26657C41.3687 7.75276 39.8733 6.93526 39.3709 6.8062C39.1721 6.75515 38.9737 6.48255 38.8263 6.05772C38.2722 4.46112 36.5322 2.44778 34.8282 1.43173C33.2089 0.46597 32.0001 0.108039 30.0577 0.0193556C27.4926 -0.0978218 25.5889 0.37363 23.7696 1.57634L22.9993 2.08573L22.3351 1.64567C21.3594 0.999288 19.7488 0.326546 18.7365 0.142933C17.5891 -0.0653658 15.2693 -0.0423568 14.1809 0.188188Z" fill="#1E3163"/>
</svg>
