<svg width="28" height="28" viewBox="0 0 28 28" fill="none" xmlns="http://www.w3.org/2000/svg">
<path d="M14 2.37988C7.58337 2.37988 2.33337 7.61822 2.33337 14.0699C2.33337 19.9032 6.60337 24.7449 12.18 25.6199V17.4532H9.21671V14.0699H12.18V11.4915C12.18 8.56322 13.9184 6.95322 16.59 6.95322C17.8617 6.95322 19.1917 7.17488 19.1917 7.17488V10.0565H17.7217C16.275 10.0565 15.82 10.9549 15.82 11.8765V14.0699H19.0634L18.5384 17.4532H15.82V25.6199C18.5692 25.1857 21.0726 23.783 22.8783 21.665C24.684 19.5469 25.6729 16.8531 25.6667 14.0699C25.6667 7.61822 20.4167 2.37988 14 2.37988Z" fill="white"/>
</svg>
