<svg width="90" height="60" viewBox="0 0 90 60" fill="none" xmlns="http://www.w3.org/2000/svg">
<path fill-rule="evenodd" clip-rule="evenodd" d="M27.7452 0.376377C26.8266 0.575076 24.8508 1.3464 23.3543 2.09061C16.7204 5.38925 12.5836 12.1825 12.5663 19.8074C12.5599 22.6136 12.9514 24.862 13.8257 27.0428C14.4561 28.616 14.4616 28.7266 13.9745 30.0904C13.3817 31.7504 13.338 32.9986 13.8223 34.4316C14.6742 36.9516 16.7529 38.6109 19.4022 38.8852C21.312 39.083 23.1214 38.3461 24.6049 36.766C27.0929 34.1161 26.6738 29.6363 23.7169 27.276C22.7646 26.5156 22.2112 26.3346 20.404 26.1917L18.2348 26.0201L17.639 24.344C17.2354 23.2081 17.0368 21.8325 17.0225 20.0774C16.9873 15.6728 18.4392 12.1118 21.5377 9.00209C27.4151 3.10422 35.9604 2.72876 42.5087 8.08144C44.5407 9.74234 45.5085 9.81152 47.104 8.40996C50.9769 5.0077 56.114 3.58847 60.6656 4.66272C63.3556 5.29752 64.8716 5.9884 66.8096 7.46279C68.4371 8.70069 70.8681 11.4358 70.8681 12.0292C70.8681 12.2425 69.9181 12.4376 68.3627 12.5442C64.5114 12.8075 60.9222 14.2213 57.8097 16.7008C57.0581 17.2996 50.3917 23.8542 42.9958 31.267C28.9931 45.3009 27.8291 46.3041 24.3437 47.3427C22.4703 47.901 18.1908 47.9934 16.1066 47.5201C10.0257 46.1399 5.05049 40.2325 4.47349 33.7075C4.3666 32.4964 4.13246 31.32 3.95329 31.093C2.94081 29.8103 0.669879 30.1778 0.137525 31.7101C-0.193792 32.6637 0.098048 35.7438 0.750053 38.1776C1.96417 42.7086 5.91629 47.681 10.122 49.9691C16.1255 53.2348 23.7151 53.2619 29.4887 50.0379C30.5312 49.4559 31.4617 48.8534 31.5564 48.6995C31.9901 47.9952 32.9494 48.7427 37.5502 53.3716C43.1893 59.0449 44.2859 60 45.159 60C45.5786 60 49.3713 56.4118 56.6065 49.1697C67.113 38.6533 67.4507 38.3482 68.2561 38.6557C70.4614 39.4969 73.8031 38.3641 75.2186 36.2954C77.5494 32.8895 76.6866 29.1447 73.002 26.6756C72.4797 26.3255 71.5932 26.1725 70.087 26.1725C68.1817 26.1725 67.7772 26.2782 66.7097 27.0538C64.9888 28.3051 64.2803 29.3239 63.9025 31.0918C63.6647 32.2041 63.6656 32.9794 63.9052 33.8727L64.2375 35.1109L54.6478 44.7343L45.0584 54.3578L40.5014 49.7923C37.9951 47.2815 35.9446 45.1125 35.9446 44.9723C35.9446 44.8322 41.5139 39.1391 48.3206 32.3212C59.2465 21.3778 60.9459 19.7949 62.8214 18.8157C69.971 15.0825 78.454 17.2338 83.0566 23.9472C84.2619 25.7053 85.3345 28.868 85.6076 31.4691C85.8587 33.8605 86.4506 34.7055 87.8742 34.7055C89.3046 34.7055 90 33.7766 90 31.8665C90 26.0731 87.0841 20.2996 82.2561 16.5331C80.9387 15.5055 78.0131 13.8705 77.0301 13.6124C76.641 13.5103 76.2529 12.9651 75.9644 12.1154C74.8803 8.92225 71.476 4.89555 68.1422 2.86346C64.9739 0.931941 62.6088 0.216077 58.8085 0.0387112C53.7899 -0.195644 50.0652 0.747261 46.5058 3.15267L44.9986 4.17146L43.6992 3.29134C41.7902 1.99858 38.6389 0.653092 36.6583 0.285865C34.4135 -0.130732 29.8747 -0.0847137 27.7452 0.376377Z" fill="white"/>
</svg>
