<svg width="24" height="24" viewBox="0 0 24 24" fill="none" xmlns="http://www.w3.org/2000/svg">
<path d="M6.76667 0.333496H16.5667C20.3 0.333496 23.3333 3.36683 23.3333 7.10016V16.9002C23.3333 18.6948 22.6204 20.4159 21.3514 21.6849C20.0824 22.9539 18.3613 23.6668 16.5667 23.6668H6.76667C3.03333 23.6668 0 20.6335 0 16.9002V7.10016C0 5.30553 0.712915 3.5844 1.98191 2.31541C3.25091 1.04641 4.97204 0.333496 6.76667 0.333496ZM6.53333 2.66683C5.41942 2.66683 4.35114 3.10933 3.56349 3.89698C2.77583 4.68463 2.33333 5.75292 2.33333 6.86683V17.1335C2.33333 19.4552 4.21167 21.3335 6.53333 21.3335H16.8C17.9139 21.3335 18.9822 20.891 19.7699 20.1033C20.5575 19.3157 21 18.2474 21 17.1335V6.86683C21 4.54516 19.1217 2.66683 16.8 2.66683H6.53333ZM17.7917 4.41683C18.1784 4.41683 18.5494 4.57048 18.8229 4.84397C19.0964 5.11746 19.25 5.48839 19.25 5.87516C19.25 6.26194 19.0964 6.63287 18.8229 6.90636C18.5494 7.17985 18.1784 7.3335 17.7917 7.3335C17.4049 7.3335 17.034 7.17985 16.7605 6.90636C16.487 6.63287 16.3333 6.26194 16.3333 5.87516C16.3333 5.48839 16.487 5.11746 16.7605 4.84397C17.034 4.57048 17.4049 4.41683 17.7917 4.41683ZM11.6667 6.16683C13.2138 6.16683 14.6975 6.78141 15.7915 7.87537C16.8854 8.96934 17.5 10.4531 17.5 12.0002C17.5 13.5473 16.8854 15.031 15.7915 16.125C14.6975 17.2189 13.2138 17.8335 11.6667 17.8335C10.1196 17.8335 8.63584 17.2189 7.54188 16.125C6.44792 15.031 5.83333 13.5473 5.83333 12.0002C5.83333 10.4531 6.44792 8.96934 7.54188 7.87537C8.63584 6.78141 10.1196 6.16683 11.6667 6.16683ZM11.6667 8.50016C10.7384 8.50016 9.84817 8.86891 9.19179 9.52529C8.53542 10.1817 8.16667 11.0719 8.16667 12.0002C8.16667 12.9284 8.53542 13.8187 9.19179 14.475C9.84817 15.1314 10.7384 15.5002 11.6667 15.5002C12.5949 15.5002 13.4852 15.1314 14.1415 14.475C14.7979 13.8187 15.1667 12.9284 15.1667 12.0002C15.1667 11.0719 14.7979 10.1817 14.1415 9.52529C13.4852 8.86891 12.5949 8.50016 11.6667 8.50016Z" fill="white"/>
</svg>
