<svg width="29" height="28" viewBox="0 0 29 28" fill="none" xmlns="http://www.w3.org/2000/svg">
<path d="M9.76667 2.3335H19.5667C23.3 2.3335 26.3333 5.36683 26.3333 9.10016V18.9002C26.3333 20.6948 25.6204 22.4159 24.3514 23.6849C23.0824 24.9539 21.3613 25.6668 19.5667 25.6668H9.76667C6.03333 25.6668 3 22.6335 3 18.9002V9.10016C3 7.30553 3.71291 5.5844 4.98191 4.31541C6.25091 3.04641 7.97204 2.3335 9.76667 2.3335M9.53333 4.66683C8.41942 4.66683 7.35114 5.10933 6.56349 5.89698C5.77583 6.68463 5.33333 7.75292 5.33333 8.86683V19.1335C5.33333 21.4552 7.21167 23.3335 9.53333 23.3335H19.8C20.9139 23.3335 21.9822 22.891 22.7699 22.1033C23.5575 21.3157 24 20.2474 24 19.1335V8.86683C24 6.54516 22.1217 4.66683 19.8 4.66683H9.53333ZM20.7917 6.41683C21.1784 6.41683 21.5494 6.57048 21.8229 6.84397C22.0964 7.11746 22.25 7.48839 22.25 7.87516C22.25 8.26194 22.0964 8.63287 21.8229 8.90636C21.5494 9.17985 21.1784 9.3335 20.7917 9.3335C20.4049 9.3335 20.034 9.17985 19.7605 8.90636C19.487 8.63287 19.3333 8.26194 19.3333 7.87516C19.3333 7.48839 19.487 7.11746 19.7605 6.84397C20.034 6.57048 20.4049 6.41683 20.7917 6.41683ZM14.6667 8.16683C16.2138 8.16683 17.6975 8.78141 18.7915 9.87537C19.8854 10.9693 20.5 12.4531 20.5 14.0002C20.5 15.5473 19.8854 17.031 18.7915 18.125C17.6975 19.2189 16.2138 19.8335 14.6667 19.8335C13.1196 19.8335 11.6358 19.2189 10.5419 18.125C9.44792 17.031 8.83333 15.5473 8.83333 14.0002C8.83333 12.4531 9.44792 10.9693 10.5419 9.87537C11.6358 8.78141 13.1196 8.16683 14.6667 8.16683M14.6667 10.5002C13.7384 10.5002 12.8482 10.8689 12.1918 11.5253C11.5354 12.1817 11.1667 13.0719 11.1667 14.0002C11.1667 14.9284 11.5354 15.8187 12.1918 16.475C12.8482 17.1314 13.7384 17.5002 14.6667 17.5002C15.5949 17.5002 16.4852 17.1314 17.1415 16.475C17.7979 15.8187 18.1667 14.9284 18.1667 14.0002C18.1667 13.0719 17.7979 12.1817 17.1415 11.5253C16.4852 10.8689 15.5949 10.5002 14.6667 10.5002Z" fill="white"/>
</svg>
