<svg width="18" height="19" viewBox="0 0 18 19" fill="none" xmlns="http://www.w3.org/2000/svg">
<path d="M3.62 8.29C5.06 11.12 7.38 13.44 10.21 14.88L12.41 12.68C12.69 12.4 13.08 12.32 13.43 12.43C14.55 12.8 15.75 13 17 13C17.2652 13 17.5196 13.1054 17.7071 13.2929C17.8946 13.4804 18 13.7348 18 14V17.5C18 17.7652 17.8946 18.0196 17.7071 18.2071C17.5196 18.3946 17.2652 18.5 17 18.5C12.4913 18.5 8.1673 16.7089 4.97918 13.5208C1.79107 10.3327 0 6.00868 0 1.5C0 1.23478 0.105357 0.98043 0.292893 0.792893C0.48043 0.605357 0.734784 0.5 1 0.5H4.5C4.76522 0.5 5.01957 0.605357 5.20711 0.792893C5.39464 0.98043 5.5 1.23478 5.5 1.5C5.5 2.75 5.7 3.95 6.07 5.07C6.18 5.42 6.1 5.81 5.82 6.09L3.62 8.29Z" fill="white"/>
</svg>
