<svg width="29" height="28" viewBox="0 0 29 28" fill="none" xmlns="http://www.w3.org/2000/svg">
<path d="M26.5367 6.99984C25.6383 7.40817 24.67 7.6765 23.6667 7.80484C24.6933 7.1865 25.4867 6.2065 25.86 5.02817C24.8917 5.6115 23.8183 6.01984 22.6867 6.25317C21.765 5.24984 20.47 4.6665 19 4.6665C16.2583 4.6665 14.0183 6.9065 14.0183 9.6715C14.0183 10.0682 14.065 10.4532 14.1467 10.8148C9.99334 10.6048 6.295 8.60984 3.83334 5.58817C3.40167 6.32317 3.15667 7.1865 3.15667 8.0965C3.15667 9.83484 4.03167 11.3748 5.385 12.2498C4.55667 12.2498 3.78667 12.0165 3.11001 11.6665C3.11001 11.6665 3.11001 11.6665 3.11001 11.7015C3.11001 14.1282 4.83667 16.1582 7.12334 16.6132C6.70334 16.7298 6.26 16.7882 5.805 16.7882C5.49 16.7882 5.175 16.7532 4.87167 16.6948C5.50167 18.6665 7.33334 20.1365 9.53834 20.1715C7.835 21.5248 5.67667 22.3182 3.32 22.3182C2.92334 22.3182 2.52667 22.2948 2.13 22.2482C4.34667 23.6715 6.98334 24.4998 9.80667 24.4998C19 24.4998 24.0517 16.8698 24.0517 10.2548C24.0517 10.0332 24.0517 9.82317 24.04 9.6015C25.02 8.9015 25.86 8.01484 26.5367 6.99984Z" fill="white"/>
</svg>
