<svg width="28" height="28" viewBox="0 0 28 28" fill="none" xmlns="http://www.w3.org/2000/svg">
<path d="M11.6666 17.5002L17.7216 14.0002L11.6666 10.5002V17.5002ZM25.1533 8.36516C25.3049 8.9135 25.4099 9.6485 25.4799 10.5818C25.5616 11.5152 25.5966 12.3202 25.5966 13.0202L25.6666 14.0002C25.6666 16.5552 25.4799 18.4335 25.1533 19.6352C24.8616 20.6852 24.1849 21.3618 23.1349 21.6535C22.5866 21.8052 21.5833 21.9102 20.0433 21.9802C18.5266 22.0618 17.1383 22.0968 15.8549 22.0968L13.9999 22.1668C9.11159 22.1668 6.06659 21.9802 4.86492 21.6535C3.81492 21.3618 3.13825 20.6852 2.84659 19.6352C2.69492 19.0868 2.58992 18.3518 2.51992 17.4185C2.43825 16.4852 2.40325 15.6802 2.40325 14.9802L2.33325 14.0002C2.33325 11.4452 2.51992 9.56683 2.84659 8.36516C3.13825 7.31516 3.81492 6.6385 4.86492 6.34683C5.41325 6.19516 6.41659 6.09016 7.95659 6.02016C9.47325 5.9385 10.8616 5.9035 12.1449 5.9035L13.9999 5.8335C18.8883 5.8335 21.9333 6.02016 23.1349 6.34683C24.1849 6.6385 24.8616 7.31516 25.1533 8.36516Z" fill="white"/>
</svg>
